<svg width="50" height="24" viewBox="0 0 50 24" fill="none" xmlns="http://www.w3.org/2000/svg" xmlns:xlink="http://www.w3.org/1999/xlink">
<g opacity="0.35">
<path d="M39.332,0.666L6,0.666C3.054,0.666 0.666,3.054 0.666,6L0.666,17.998C0.666,20.944 3.054,23.332 6,23.332L39.332,23.332C42.278,23.332 44.666,20.944 44.666,17.998L44.666,6C44.666,3.054 42.278,0.666 39.332,0.666Z" fill="#2A2A2A"/>
</g>
<g opacity="0.4">
<path d="M46.666,8L46.666,16C47.453,15.669 48.125,15.112 48.598,14.401C49.07,13.689 49.322,12.854 49.322,12C49.322,11.146 49.07,10.311 48.598,9.599C48.125,8.888 47.453,8.331 46.666,8Z" fill="#2A2A2A"/>
</g>
<path d="M38,4.666L7.332,4.666C5.86,4.666 4.666,5.86 4.666,7.332L4.666,16.666C4.666,18.138 5.86,19.332 7.332,19.332L38,19.332C39.472,19.332 40.666,18.138 40.666,16.666L40.666,7.332C40.666,5.86 39.472,4.666 38,4.666Z" fill="#2A2A2A"/>
</svg>
