<svg width="34" height="22" viewBox="0 0 34 22" fill="none" xmlns="http://www.w3.org/2000/svg" xmlns:xlink="http://www.w3.org/1999/xlink">
<path d="M30,20.668C29.47,20.668 28.961,20.457 28.586,20.082C28.211,19.707 28,19.198 28,18.668L28,1.334C28,0.804 28.211,0.295 28.586,-0.08C28.961,-0.455 29.47,-0.666 30,-0.666L32,-0.666C32.53,-0.666 33.039,-0.455 33.414,-0.08C33.789,0.295 34,0.804 34,1.334L34,18.668C34,19.198 33.789,19.707 33.414,20.082C33.039,20.457 32.53,20.668 32,20.668L30,20.668ZM20.666,20.668C20.136,20.668 19.627,20.457 19.252,20.082C18.877,19.707 18.666,19.198 18.666,18.668L18.666,6.002C18.666,5.472 18.877,4.963 19.252,4.588C19.627,4.213 20.136,4.002 20.666,4.002L22.666,4.002C23.196,4.002 23.705,4.213 24.08,4.588C24.455,4.963 24.666,5.472 24.666,6.002L24.666,18.668C24.666,19.198 24.455,19.707 24.08,20.082C23.705,20.457 23.196,20.668 22.666,20.668L20.666,20.668ZM11.332,20.668C10.802,20.668 10.293,20.457 9.918,20.082C9.543,19.707 9.332,19.198 9.332,18.668L9.332,10.668C9.332,10.138 9.543,9.629 9.918,9.254C10.293,8.879 10.802,8.668 11.332,8.668L13.332,8.668C13.862,8.668 14.371,8.879 14.746,9.254C15.121,9.629 15.332,10.138 15.332,10.668L15.332,18.668C15.332,19.198 15.121,19.707 14.746,20.082C14.371,20.457 13.862,20.668 13.332,20.668L11.332,20.668ZM2,20.668C1.47,20.668 0.961,20.457 0.586,20.082C0.211,19.707 0,19.198 0,18.668L0,14.668C0,14.138 0.211,13.629 0.586,13.254C0.961,12.879 1.47,12.668 2,12.668L4,12.668C4.53,12.668 5.039,12.879 5.414,13.254C5.789,13.629 6,14.138 6,14.668L6,18.668C6,19.198 5.789,19.707 5.414,20.082C5.039,20.457 4.53,20.668 4,20.668L2,20.668Z" fill="#2A2A2A"/>
</svg>
