<svg width="188" height="184" viewBox="0 0 188 184" fill="none" xmlns="http://www.w3.org/2000/svg" xmlns:xlink="http://www.w3.org/1999/xlink">
<path d="M186.701,89.383C186.701,83.86 182.224,79.383 176.701,79.383C171.178,79.383 166.701,83.86 166.701,89.383L186.701,89.383ZM164.509,132.89L155.965,127.693L164.509,132.89ZM131.486,163.726L126.886,154.846L131.486,163.726ZM44.677,157.772L50.446,149.604L44.677,157.772ZM16.173,122.716L6.999,126.697L16.173,122.716ZM10.035,77.952L0.129,76.587L10.035,77.952ZM28.052,36.518L20.298,30.204L28.052,36.518ZM68.321,19.903C73.526,18.056 76.248,12.34 74.401,7.135C72.554,1.93 66.837,-0.792 61.632,1.055L68.321,19.903ZM166.701,89.383C166.701,102.896 162.987,116.148 155.965,127.693L173.053,138.086C181.98,123.409 186.701,106.561 186.701,89.383L166.701,89.383ZM155.965,127.693C148.944,139.238 138.884,148.631 126.886,154.846L136.085,172.605C151.339,164.704 164.127,152.763 173.053,138.086L155.965,127.693ZM126.886,154.846C114.888,161.062 101.412,163.86 87.931,162.935L86.563,182.888C103.701,184.064 120.832,180.506 136.085,172.605L126.886,154.846ZM87.931,162.935C74.451,162.011 61.483,157.399 50.446,149.604L38.908,165.94C52.94,175.85 69.425,181.713 86.563,182.888L87.931,162.935ZM50.446,149.604C39.408,141.809 30.725,131.13 25.346,118.735L6.999,126.697C13.838,142.455 24.876,156.031 38.908,165.94L50.446,149.604ZM25.346,118.735C19.966,106.339 18.097,92.704 19.942,79.318L0.129,76.587C-2.217,93.604 0.16,110.939 6.999,126.697L25.346,118.735ZM19.942,79.318C21.786,65.932 27.275,53.31 35.807,42.832L20.298,30.204C9.451,43.524 2.474,59.57 0.129,76.587L19.942,79.318ZM35.807,42.832C44.339,32.354 55.586,24.422 68.321,19.903L61.632,1.055C45.443,6.799 31.144,16.883 20.298,30.204L35.807,42.832Z" transform="rotate(248.653 92.976 89.383)" fill="#EAC090"/>
</svg>
