<svg width="72" height="64" viewBox="0 0 72 64" fill="none" xmlns="http://www.w3.org/2000/svg" xmlns:xlink="http://www.w3.org/1999/xlink">
<path d="M16.401,10.982L69.373,10.982C70.166,10.982 70.908,11.367 71.366,12.014C71.823,12.66 71.939,13.489 71.675,14.236L58.754,50.844C58.41,51.821 57.486,52.473 56.45,52.472L3.478,52.472C2.686,52.472 1.943,52.088 1.485,51.441C1.028,50.794 0.913,49.966 1.176,49.219L14.097,12.61C14.442,11.634 15.365,10.981 16.401,10.982Z" fill="#F3D55B"/>
<path d="M48.627,7.321L8.358,7.321C7.684,7.321 7.137,6.775 7.137,6.101C7.137,5.427 7.684,4.881 8.358,4.881L48.627,4.881C49.301,4.881 49.847,5.427 49.847,6.101C49.847,6.775 49.301,7.321 48.627,7.321Z" fill="#67B9CC"/>
<path d="M63.271,7.322L53.509,7.322C52.835,7.322 52.289,6.775 52.289,6.101C52.289,5.428 52.835,4.881 53.509,4.881L63.271,4.881C63.945,4.881 64.491,5.428 64.491,6.101C64.491,6.775 63.945,7.322 63.271,7.322Z" fill="#67B9CC"/>
<path d="M58.39,2.441L26.663,2.441C25.989,2.441 25.442,1.894 25.442,1.22C25.442,0.546 25.989,0 26.663,0L58.39,0C59.064,0 59.61,0.546 59.61,1.22C59.61,1.894 59.064,2.441 58.39,2.441Z" fill="#67B9CC"/>
<path d="M21.781,2.441L1.037,2.441C0.363,2.441 -0.184,1.894 -0.184,1.22C-0.184,0.546 0.363,0 1.037,0L21.781,0C22.455,0 23.002,0.546 23.002,1.22C23.002,1.894 22.455,2.441 21.781,2.441Z" fill="#67B9CC"/>
<path d="M48.627,58.573L8.358,58.573C7.684,58.573 7.137,58.027 7.137,57.353C7.137,56.679 7.684,56.133 8.358,56.133L48.627,56.133C49.301,56.133 49.847,56.679 49.847,57.353C49.847,58.027 49.301,58.573 48.627,58.573Z" fill="#67B9CC"/>
<path d="M63.271,58.574L53.509,58.574C52.835,58.574 52.289,58.028 52.289,57.354C52.289,56.68 52.835,56.133 53.509,56.133L63.271,56.133C63.945,56.133 64.491,56.68 64.491,57.354C64.491,58.028 63.945,58.574 63.271,58.574Z" fill="#67B9CC"/>
<path d="M58.39,63.454L26.663,63.454C25.989,63.454 25.442,62.908 25.442,62.234C25.442,61.56 25.989,61.014 26.663,61.014L58.39,61.014C59.064,61.014 59.61,61.56 59.61,62.234C59.61,62.908 59.064,63.454 58.39,63.454Z" fill="#67B9CC"/>
<path d="M21.781,63.454L1.037,63.454C0.363,63.454 -0.184,62.908 -0.184,62.234C-0.184,61.56 0.363,61.014 1.037,61.014L21.781,61.014C22.455,61.014 23.002,61.56 23.002,62.234C23.002,62.908 22.455,63.454 21.781,63.454Z" fill="#67B9CC"/>
<path d="M54.729,17.085L27.883,17.085C27.209,17.085 26.663,16.538 26.663,15.864C26.663,15.19 27.209,14.644 27.883,14.644L54.729,14.644C55.403,14.644 55.95,15.19 55.95,15.864C55.95,16.538 55.403,17.085 54.729,17.085Z" fill="#ECF0F1"/>
<path d="M29.921,31.996L1.28,51.094C0.997,50.506 0.961,49.828 1.183,49.214L14.093,12.606C14.237,12.202 14.486,11.844 14.813,11.568L29.921,31.996Z" fill="#F0C419"/>
<path d="M57.988,51.923C57.556,52.281 57.011,52.475 56.45,52.472L3.478,52.472C2.541,52.475 1.686,51.938 1.281,51.093L29.921,31.996L32.594,35.62C33.371,36.674 34.841,36.927 35.925,36.194L42.905,31.459L57.988,51.923Z" fill="#F29C1F"/>
<path d="M71.667,14.242L58.757,50.851C58.607,51.274 58.34,51.646 57.988,51.924L42.905,31.46L71.436,12.131C71.837,12.76 71.923,13.541 71.667,14.242Z" fill="#F0C419"/>
</svg>
