<svg width="68" height="60" viewBox="0 0 68 60" fill="none" xmlns="http://www.w3.org/2000/svg" xmlns:xlink="http://www.w3.org/1999/xlink">
<path d="M29.579,44.232C28.815,44.232 28.107,43.801 27.76,43.108L22.239,32.076L19.165,36.805C18.79,37.383 18.148,37.731 17.46,37.731L2.034,37.731C0.911,37.731 0,36.82 0,35.697C0,34.573 0.911,33.662 2.034,33.662L16.355,33.662L20.763,26.88C21.16,26.269 21.856,25.918 22.582,25.957C23.311,25.998 23.961,26.426 24.288,27.078L28.987,36.467L33.758,18.373C33.979,17.538 34.702,16.933 35.563,16.864C36.423,16.795 37.235,17.278 37.585,18.068L41.069,25.931L44.001,21.385C44.374,20.809 45.011,20.459 45.697,20.454C46.393,20.447 47.026,20.791 47.405,21.362L50.455,25.954L65.964,25.954C67.087,25.954 67.998,26.865 67.998,27.988C67.998,29.112 67.087,30.023 65.964,30.023L49.364,30.023C48.683,30.023 48.047,29.682 47.67,29.114L45.736,26.202L42.445,31.303C42.04,31.931 41.322,32.287 40.577,32.228C39.832,32.17 39.179,31.708 38.876,31.024L36.214,25.017L31.547,42.716C31.331,43.534 30.631,44.134 29.789,44.221C29.718,44.228 29.648,44.232 29.579,44.232Z" fill="#2D527C"/>
<path d="M32.92,58.994C32.624,58.994 32.329,58.93 32.055,58.801C22.351,54.24 12.609,45.818 6.632,36.823C6.217,36.198 6.18,35.396 6.534,34.735C6.888,34.075 7.577,33.662 8.327,33.662L16.356,33.662L20.763,26.88C21.16,26.269 21.855,25.916 22.583,25.957C23.311,25.998 23.961,26.426 24.288,27.078L28.987,36.467L33.758,18.373C33.979,17.538 34.702,16.932 35.564,16.864C36.423,16.795 37.235,17.278 37.585,18.067L41.069,25.93L44.002,21.385C44.374,20.809 45.011,20.458 45.697,20.454C45.702,20.454 45.707,20.454 45.711,20.454C46.392,20.454 47.028,20.795 47.406,21.362L51.059,26.863C51.681,27.799 51.426,29.061 50.49,29.683C49.554,30.305 48.292,30.05 47.67,29.114L45.736,26.202L42.446,31.303C42.04,31.931 41.321,32.287 40.578,32.229C39.832,32.17 39.179,31.708 38.876,31.024L36.214,25.017L31.547,42.716C31.331,43.534 30.631,44.134 29.789,44.221C28.946,44.307 28.139,43.864 27.761,43.108L22.239,32.076L19.166,36.805C18.79,37.383 18.148,37.731 17.46,37.731L12.312,37.731C17.698,44.592 25.4,50.968 32.92,54.701C39.913,51.229 47.184,45.408 52.529,38.973C53.247,38.109 54.53,37.991 55.394,38.709C56.258,39.427 56.377,40.709 55.659,41.573C49.73,48.71 41.553,55.15 33.786,58.801C33.511,58.93 33.215,58.994 32.92,58.994Z" fill="#2D527C"/>
<path d="M22.468,27.99L29.579,42.199L35.725,18.894L40.735,30.202L45.711,22.49L49.364,27.99L61.542,27.99C62.041,26.66 62.434,25.333 62.703,24.019C62.98,22.662 63.13,21.312 63.13,19.992C63.13,10.077 55.202,2.035 45.421,2.035C40.543,2.035 36.126,4.038 32.919,7.274C29.713,4.038 25.296,2.035 20.418,2.035C10.637,2.035 2.709,10.077 2.709,19.992C2.709,21.312 2.859,22.662 3.136,24.019C3.926,27.881 5.775,31.859 8.326,35.699L17.459,35.699L22.468,27.99Z" fill="#CEE8FA"/>
<path d="M29.579,44.233C28.815,44.233 28.107,43.802 27.76,43.109L22.239,32.077L19.165,36.806C18.79,37.384 18.148,37.732 17.459,37.732L8.327,37.732C7.645,37.732 7.009,37.391 6.632,36.824C3.801,32.563 1.955,28.392 1.143,24.426C0.833,22.902 0.675,21.41 0.675,19.991C0.675,8.968 9.532,0 20.418,0C25.026,0 29.397,1.591 32.92,4.517C36.442,1.591 40.814,0 45.421,0C56.308,0 65.164,8.968 65.164,19.991C65.164,21.411 65.007,22.903 64.697,24.425C64.413,25.811 63.993,27.25 63.447,28.705C63.149,29.498 62.39,30.024 61.542,30.024L49.364,30.024C48.683,30.024 48.047,29.683 47.67,29.115L45.736,26.204L42.445,31.304C42.04,31.932 41.322,32.288 40.577,32.23C39.832,32.171 39.179,31.709 38.876,31.025L36.214,25.018L31.547,42.717C31.331,43.535 30.631,44.135 29.789,44.222C29.718,44.229 29.648,44.233 29.579,44.233ZM22.468,25.955C22.506,25.955 22.544,25.956 22.582,25.958C23.311,25.999 23.961,26.427 24.287,27.079L28.987,36.468L33.758,18.374C33.978,17.539 34.702,16.934 35.563,16.865C36.423,16.796 37.235,17.279 37.585,18.069L41.069,25.932L44.001,21.386C44.373,20.81 45.011,20.46 45.697,20.455C46.393,20.448 47.026,20.792 47.405,21.363L50.455,25.955L60.095,25.955C60.349,25.156 60.554,24.371 60.71,23.61C60.966,22.356 61.096,21.138 61.096,19.991C61.096,11.211 54.064,4.068 45.421,4.068C41.255,4.068 37.328,5.715 34.365,8.704C33.983,9.09 33.463,9.307 32.92,9.307C32.377,9.307 31.857,9.09 31.475,8.704C28.512,5.715 24.585,4.068 20.419,4.068C11.776,4.068 4.744,11.211 4.744,19.991C4.744,21.138 4.874,22.356 5.13,23.611C5.779,26.787 7.226,30.165 9.433,33.663L16.356,33.663L20.763,26.881C21.139,26.302 21.782,25.955 22.468,25.955Z" fill="#2D527C"/>
</svg>
