<svg width="676" height="772" viewBox="0 0 676 772" fill="none" xmlns="http://www.w3.org/2000/svg" xmlns:xlink="http://www.w3.org/1999/xlink">
<rect  x="0" y="70" width="676" height="702" rx="45" fill="#FAFCFF" stroke="#E6E6E6" stroke-width="1" stroke-miterlimit="3.999327"/>
<rect  x="52" y="0" width="580" height="364" fill="url(#pattern_0_1_381)"/>
<path d="M522,28L487.844,247.776C476.794,249.116 452.284,251.792 442.64,251.792C432.996,251.792 430.584,255.138 430.584,256.81C426.27,276.802 424.316,282.01 420,302L57,226L522,28Z" fill="url(#pf_0_1_382)"/>
<circle cx="472" cy="80" r="6" fill="#FFFFFF"/>
<circle cx="432" cy="106" r="6" fill="#FFFFFF"/>
<circle cx="260" cy="118" r="6" fill="#FFFFFF"/>
<circle cx="196" cy="178" r="6" fill="#FFFFFF"/>
<circle cx="114" cy="196" r="6" fill="#FFFFFF"/>
<circle cx="312" cy="238" r="6" fill="#FFFFFF"/>
<circle cx="214" cy="202" r="6" fill="#FFFFFF"/>
<circle cx="438" cy="176" r="6" fill="#FFFFFF"/>
<circle cx="374" cy="68" r="6" fill="#FFFFFF"/>
<circle cx="414" cy="92" r="6" fill="#FFFFFF"/>
<circle cx="368" cy="172" r="6" fill="#FFFFFF"/>
<circle cx="362" cy="272" r="6" fill="#FFFFFF"/>
<path d="M438,177L439,177L439,176.958L438.996,176.916L438,177ZM414,92L414.614,91.211L414.566,91.174L414.514,91.143L414,92ZM374,68L374.514,67.142L374.072,66.877L373.598,67.084L374,68ZM368,173L368.998,173.06L368.998,173.057L368,173ZM260,118L259.598,117.084L259.437,117.155L259.31,117.276L260,118ZM312,239L311.647,239.936L313.848,240.766L312.919,238.605L312,239ZM196,179L196.203,179.979L196.483,179.921L196.69,179.724L196,179ZM471.456,79.162L431.456,105.162L432.544,106.838L472.544,80.838L471.456,79.162ZM431.004,106.084L437.004,177.084L438.996,176.916L432.996,105.916L431.004,106.084ZM437,177L437,251L439,251L439,177L437,177ZM432.614,105.211L414.614,91.211L413.386,92.789L431.386,106.789L432.614,105.211ZM414.514,91.143L374.514,67.142L373.486,68.857L413.486,92.857L414.514,91.143ZM373.002,67.943L367.002,172.943L368.998,173.057L374.998,68.057L373.002,67.943ZM367.002,172.94L361.002,272.94L362.998,273.06L368.998,173.06L367.002,172.94ZM373.598,67.084L259.598,117.084L260.402,118.916L374.402,68.916L373.598,67.084ZM259.081,118.395L311.081,239.395L312.919,238.605L260.919,117.605L259.081,118.395ZM312.353,238.064L214.353,201.064L213.647,202.936L311.647,239.936L312.353,238.064ZM259.31,117.276L195.31,178.276L196.69,179.724L260.69,118.724L259.31,117.276ZM195.797,178.021L113.797,195.021L114.203,196.979L196.203,179.979L195.797,178.021Z" fill="#FFFFFF" fill-opacity="0.48"/>
<defs>
<linearGradient id="pf_0_1_382" x1="374" y1="92" x2="466" y2="320" gradientUnits="userSpaceOnUse">
<stop stop-color="#D9D9D9" stop-opacity="0"/>
<stop offset="1" stop-color="#58C531"/>
</linearGradient>
</defs>
</svg>
