<svg width="48" height="48" viewBox="0 0 48 48" fill="none" xmlns="http://www.w3.org/2000/svg" xmlns:xlink="http://www.w3.org/1999/xlink">
<rect  x="6.059" y="6.058" width="37.882" height="37.882" rx="29.647" fill="#595959"/>
<path d="M25,11.855C23.257,11.855 21.585,12.547 20.353,13.78C19.12,15.012 18.428,16.684 18.428,18.426C18.428,20.169 19.12,21.841 20.353,23.073C21.585,24.306 23.257,24.998 25,24.998C26.742,24.998 28.414,24.306 29.646,23.073C30.879,21.841 31.571,20.169 31.571,18.426C31.571,16.684 30.879,15.012 29.646,13.78C28.414,12.547 26.742,11.855 25,11.855ZM16.8,26.641C16.367,26.639 15.939,26.723 15.538,26.887C15.138,27.051 14.774,27.293 14.468,27.598C14.161,27.904 13.918,28.266 13.752,28.666C13.585,29.065 13.5,29.494 13.5,29.926C13.5,32.704 14.868,34.799 17.007,36.164C19.113,37.507 21.952,38.141 25,38.141C28.047,38.141 30.886,37.507 32.992,36.164C35.131,34.801 36.5,32.703 36.5,29.926C36.5,29.055 36.153,28.219 35.537,27.603C34.921,26.987 34.085,26.641 33.214,26.641L16.8,26.641Z" fill="#FFFFFF"/>
<rect  x="0.5" y="0.5" width="46" height="46" rx="36" stroke="#595959" stroke-width="1.5" stroke-miterlimit="3.999327"/>
</svg>
