<svg width="68" height="82" viewBox="0 0 68 82" fill="none" xmlns="http://www.w3.org/2000/svg" xmlns:xlink="http://www.w3.org/1999/xlink">
<path d="M56.989,54.587L51.687,54.587L42.158,54.587C42.167,54.435 42.182,54.284 42.182,54.129L42.182,39.205L25.822,39.205L25.822,54.129C25.822,54.284 25.837,54.435 25.846,54.587L16.317,54.587L11.014,54.587C5.286,54.587 0.642,59.231 0.642,64.96L0.642,80.813L67.362,80.813L67.362,64.96C67.362,59.231 62.718,54.587 56.989,54.587Z" fill="#FF9F70"/>
<path d="M56.988,54.588L53.35,54.588C59.078,54.588 63.722,59.231 63.722,64.96L63.722,80.813L67.361,80.813L67.361,64.96C67.361,59.231 62.717,54.588 56.988,54.588Z" fill="#E18152"/>
<path d="M11.014,54.588L14.652,54.588C8.924,54.588 4.28,59.231 4.28,64.96L4.28,80.813L0.641,80.813L0.641,64.96C0.641,59.231 5.285,54.588 11.014,54.588Z" fill="#FFBD8E"/>
<path d="M67.361,81.453L0.641,81.453C0.288,81.453 0.002,81.167 0.002,80.813L0.002,64.96C0.002,58.888 4.942,53.949 11.013,53.949L25.182,53.949L25.182,39.205C25.182,38.853 25.468,38.566 25.821,38.566L42.181,38.566C42.534,38.566 42.82,38.853 42.82,39.205L42.82,53.949L56.989,53.949C63.061,53.949 68,58.888 68,64.96L68,80.813C68,81.167 67.714,81.453 67.361,81.453ZM1.28,80.174L66.722,80.174L66.722,64.96C66.722,59.593 62.355,55.227 56.989,55.227L42.157,55.227C41.981,55.227 41.813,55.155 41.692,55.027C41.571,54.899 41.508,54.727 41.519,54.551L41.528,54.415C41.535,54.321 41.542,54.226 41.542,54.13L41.542,39.845L26.461,39.845L26.461,54.13C26.461,54.225 26.468,54.318 26.474,54.411L26.483,54.552C26.494,54.727 26.431,54.899 26.31,55.027C26.189,55.155 26.021,55.228 25.845,55.228L11.013,55.228C5.647,55.228 1.28,59.594 1.28,64.961L1.28,80.174Z" fill="#690589"/>
<path d="M3.552,69.965C3.199,69.965 2.912,69.679 2.912,69.326L2.912,64.96C2.912,64.607 3.199,64.32 3.552,64.32C3.905,64.32 4.191,64.607 4.191,64.96L4.191,69.326C4.191,69.679 3.905,69.965 3.552,69.965Z" fill="#690589"/>
<path d="M34.001,49.764C24.234,49.764 16.316,41.743 16.316,31.85L16.316,19.447C16.316,9.554 24.234,1.533 34.001,1.533C43.768,1.533 51.686,9.554 51.686,19.447L51.686,31.85C51.686,41.744 43.768,49.764 34.001,49.764Z" fill="#FF9F70"/>
<path d="M34.001,1.533C33.321,1.533 32.651,1.576 31.992,1.652C40.812,2.663 47.667,10.242 47.667,19.448L47.667,31.85C47.667,41.055 40.812,48.635 31.992,49.646C32.651,49.722 33.321,49.764 34.001,49.764C43.768,49.764 51.686,41.744 51.686,31.85L51.686,19.447C51.686,9.554 43.768,1.533 34.001,1.533Z" fill="#E18152"/>
<path d="M34.001,1.533C34.681,1.533 35.35,1.576 36.01,1.652C27.19,2.663 20.335,10.242 20.335,19.448L20.335,31.85C20.335,41.055 27.19,48.635 36.01,49.646C35.35,49.722 34.681,49.764 34.001,49.764C24.234,49.764 16.316,41.744 16.316,31.85L16.316,19.447C16.316,9.554 24.234,1.533 34.001,1.533Z" fill="#FFBD8E"/>
<path d="M34.001,50.402C23.897,50.402 15.677,42.079 15.677,31.848L15.677,19.446C15.677,9.215 23.897,0.892 34.001,0.892C44.105,0.892 52.325,9.215 52.325,19.446L52.325,31.848C52.325,42.079 44.105,50.402 34.001,50.402ZM34.001,2.171C24.602,2.171 16.956,9.92 16.956,19.446L16.956,31.848C16.956,41.374 24.602,49.123 34.001,49.123C43.4,49.123 51.046,41.374 51.046,31.848L51.046,19.446C51.046,9.92 43.4,2.171 34.001,2.171Z" fill="#690589"/>
<path d="M34.001,31.288C27.776,31.288 23.886,24.549 26.998,19.159L34.001,7.029L41.004,19.159C44.116,24.55 40.226,31.288 34.001,31.288Z" fill="#F4EFED"/>
<path d="M34.001,31.93C30.847,31.93 28.021,30.299 26.444,27.568C24.867,24.836 24.867,21.574 26.444,18.842L33.447,6.712C33.561,6.514 33.773,6.393 34.001,6.393C34.229,6.393 34.44,6.514 34.555,6.712L41.557,18.842C43.135,21.574 43.135,24.836 41.558,27.568C39.98,30.3 37.155,31.93 34.001,31.93ZM34.001,8.311L27.552,19.481C26.206,21.813 26.206,24.597 27.552,26.928C28.898,29.26 31.309,30.652 34.001,30.652C36.693,30.652 39.104,29.26 40.45,26.928C41.796,24.597 41.796,21.813 40.45,19.481L34.001,8.311Z" fill="#690589"/>
<path d="M31.937,21.618C30.677,21.618 29.652,20.593 29.652,19.333C29.652,18.073 30.677,17.048 31.937,17.048C33.197,17.048 34.222,18.073 34.222,19.333C34.222,20.593 33.197,21.618 31.937,21.618ZM31.937,18.327C31.382,18.327 30.931,18.779 30.931,19.333C30.931,19.888 31.382,20.339 31.937,20.339C32.492,20.339 32.943,19.888 32.943,19.333C32.943,18.779 32.492,18.327 31.937,18.327Z" fill="#690589"/>
<path d="M36.065,28.103C34.806,28.103 33.781,27.078 33.781,25.818C33.781,24.559 34.806,23.533 36.065,23.533C37.325,23.533 38.35,24.558 38.35,25.818C38.35,27.078 37.325,28.103 36.065,28.103ZM36.065,24.812C35.511,24.812 35.059,25.263 35.059,25.818C35.059,26.372 35.511,26.824 36.065,26.824C36.62,26.824 37.072,26.372 37.072,25.818C37.072,25.263 36.62,24.812 36.065,24.812Z" fill="#690589"/>
<path d="M31.4,28.104C31.298,28.104 31.196,28.08 31.1,28.029C30.788,27.863 30.67,27.476 30.836,27.164L36.038,17.388C36.204,17.076 36.591,16.958 36.903,17.124C37.214,17.289 37.333,17.677 37.167,17.988L31.965,27.765C31.85,27.981 31.629,28.104 31.4,28.104Z" fill="#690589"/>
<path d="M12.43,81.453C12.077,81.453 11.791,81.167 11.791,80.814L11.791,69.327C11.791,68.974 12.077,68.688 12.43,68.688C12.784,68.688 13.07,68.974 13.07,69.327L13.07,80.814C13.07,81.167 12.784,81.453 12.43,81.453Z" fill="#690589"/>
<path d="M55.573,81.453C55.22,81.453 54.934,81.167 54.934,80.814L54.934,69.327C54.934,68.974 55.22,68.688 55.573,68.688C55.926,68.688 56.212,68.974 56.212,69.327L56.212,80.814C56.212,81.167 55.926,81.453 55.573,81.453Z" fill="#690589"/>
</svg>
