<svg width="48" height="86" viewBox="0 0 48 86" fill="none" xmlns="http://www.w3.org/2000/svg" xmlns:xlink="http://www.w3.org/1999/xlink">
<path d="M2.96,78.321L8.286,78.321C8.816,74.535 9.737,71.733 10.515,69.365C11.298,66.984 11.916,65.103 11.916,63.042C11.916,60.801 11.334,58.71 10.66,56.288C9.76,53.054 8.641,49.029 8.439,42.981C8.435,42.863 8.527,42.765 8.645,42.761C8.759,42.75 8.86,42.849 8.864,42.966C9.064,48.964 10.177,52.962 11.07,56.174C11.753,58.626 12.342,60.743 12.342,63.042C12.342,65.172 11.683,67.177 10.919,69.498C9.891,72.625 8.612,76.517 8.333,82.446C8.306,83.023 8.512,83.572 8.913,83.992C9.316,84.415 9.86,84.648 10.444,84.648L39.548,84.648C40.136,84.648 40.682,84.412 41.085,83.983C41.49,83.553 41.693,82.991 41.657,82.401C41.296,76.507 39.665,72.63 38.355,69.514C37.377,67.189 36.532,65.181 36.532,63.042C36.532,60.734 36.963,58.948 37.463,56.88C38.118,54.172 38.932,50.802 39.132,44.828C39.135,44.71 39.237,44.618 39.351,44.622C39.469,44.626 39.561,44.724 39.557,44.842C39.356,50.86 38.536,54.253 37.877,56.98C37.363,59.106 36.958,60.784 36.958,63.042C36.958,65.095 37.747,66.972 38.747,69.349C39.852,71.977 41.181,75.147 41.802,79.598L45.035,79.598C45.685,79.598 46.289,79.305 46.692,78.795C47.095,78.285 47.239,77.63 47.089,76.997L44.65,66.753C44.414,64.862 44.362,62.964 44.494,61.086L45.736,48.22C46.367,43.189 44.396,37.411 38.57,35.828C37.968,35.665 37.381,35.436 36.886,35.233L34.9,34.42C33.42,33.814 32.206,32.696 31.479,31.272L30.72,29.783C30.188,28.74 30.033,27.536 30.283,26.393L31.024,23.004C31.049,22.889 31.162,22.817 31.278,22.841C31.393,22.866 31.465,22.98 31.44,23.095L30.857,25.761C33.748,24.595 35.927,22.155 36.586,19.306L38.386,11.461C38.962,9.045 38.56,6.553 37.252,4.442C35.945,2.332 33.893,0.862 31.474,0.302C26.541,-0.84 21.571,2.24 20.396,7.166L18.566,15.139C17.898,18.026 18.716,21.273 20.648,23.526L21.505,20.715C21.54,20.603 21.658,20.538 21.771,20.574C21.883,20.608 21.947,20.727 21.912,20.839L20.422,25.724C19.92,27.372 18.823,28.757 17.335,29.624L16.54,30.087C15.343,30.785 13.982,31.137 12.593,31.126L10.094,31.093C7.293,31.031 5.347,32.518 4.214,33.774C2.111,36.107 1.055,39.555 1.459,42.771L2.538,58.151C2.667,59.999 2.617,61.867 2.388,63.705L0.865,75.948C0.79,76.549 0.977,77.153 1.377,77.607C1.778,78.06 2.355,78.321 2.96,78.321ZM25.222,84.409C25.222,84.526 25.126,84.621 25.009,84.621C24.891,84.621 24.796,84.526 24.796,84.409L24.796,80.158C24.796,80.04 24.891,79.945 25.009,79.945C25.126,79.945 25.222,80.04 25.222,80.158L25.222,84.409Z" fill="#FFE0C9"/>
<path d="M18.366,17.167C18.357,17.164 18.349,17.166 18.34,17.164C18.34,17.41 18.345,17.656 18.364,17.902L18.507,17.433C18.541,17.32 18.478,17.201 18.366,17.167Z" fill="#000000"/>
<path d="M34.982,8.054L33.182,15.899C32.777,17.649 31.795,19.233 30.479,20.445C29.857,21.018 29.118,21.338 28.469,21.825C27.797,22.33 27.37,23.406 27.204,24.197C26.705,26.574 27.345,29.247 28.764,31.237C29.968,32.927 32.037,34.118 34.089,33.812C33.775,33.859 32.803,32.586 32.605,32.35C32.119,31.771 31.691,31.142 31.332,30.477C30.658,29.231 29.974,27.816 30.285,26.392L31.026,23.002C31.051,22.888 31.164,22.816 31.28,22.84C31.394,22.865 31.467,22.979 31.442,23.094L30.859,25.76C33.749,24.594 35.929,22.154 36.587,19.305L38.387,11.46C38.964,9.043 38.561,6.552 37.254,4.441C36.429,3.11 35.307,2.035 33.984,1.281C35.176,3.338 35.536,5.729 34.982,8.054Z" fill="#FFBA9C"/>
<path d="M47.091,76.994L44.652,66.75C44.416,64.859 44.364,62.961 44.496,61.083L45.738,48.217C46.278,43.917 44.913,39.073 40.868,36.767C42.251,39.145 42.674,42.087 42.332,44.811L41.09,57.678C40.959,59.555 41.01,61.454 41.247,63.344L43.685,73.589C43.836,74.221 43.691,74.876 43.288,75.387C42.885,75.897 42.281,76.189 41.631,76.189L41.146,76.189C41.406,77.238 41.633,78.366 41.804,79.595L45.037,79.595C45.687,79.595 46.291,79.302 46.694,78.792C47.097,78.282 47.242,77.627 47.091,76.994Z" fill="#FFBA9C"/>
<path d="M41.069,76.962C40.942,75.086 39.621,72.995 38.903,71.265C38.233,69.653 37.56,68.029 37.192,66.322C36.407,62.682 37.052,58.897 37.856,55.261C38.391,52.84 38.998,50.427 39.305,47.963C39.427,46.983 39.998,45.474 38.735,45.051C38.26,44.891 37.738,44.966 37.283,45.175C35.888,45.815 35.331,47.053 35.105,48.445C34.83,50.138 34.462,51.807 34.06,53.474C33.56,55.541 33.128,57.327 33.128,59.636C33.128,61.774 33.973,63.782 34.951,66.108C36.046,68.712 37.366,71.848 37.98,76.25C38.098,77.093 38.19,77.984 38.249,78.926C38.284,79.468 38.137,80.021 37.797,80.445C37.386,80.957 36.79,81.242 36.145,81.242L25.224,81.242L25.224,84.408C25.224,84.525 25.129,84.621 25.011,84.621C24.893,84.621 24.798,84.525 24.798,84.408L24.798,81.242L17.758,81.242C14.774,81.242 11.912,82.427 9.802,84.537C10.008,84.603 10.223,84.648 10.447,84.648L39.478,84.648C40.022,84.648 40.562,84.47 40.965,84.104C41.451,83.66 41.699,83.047 41.659,82.4C41.659,80.58 41.192,78.768 41.069,76.962Z" fill="#FFBA9C"/>
<path d="M2.645,78.294C2.749,78.31 2.855,78.321 2.962,78.321L8.288,78.321C8.363,77.115 8.974,76 9.121,74.955C7.113,74.955 5.187,75.753 3.767,77.172L2.645,78.294Z" fill="#FFBA9C"/>
<path d="M32.728,24.708L32.714,24.773C32.816,24.704 32.917,24.633 33.016,24.561C33.004,24.556 32.994,24.549 32.981,24.546C32.865,24.521 32.753,24.594 32.728,24.708Z" fill="#FFE0C9"/>
<path d="M20.861,22.827C20.05,20.951 19.812,18.813 20.268,16.842L22.098,8.868C23.274,3.943 28.244,0.863 33.177,2.005C34.495,2.31 35.698,2.894 36.738,3.696C35.435,1.986 33.596,0.793 31.474,0.302C26.541,-0.84 21.571,2.24 20.396,7.166L18.565,15.139C17.898,18.026 18.716,21.273 20.647,23.526L20.861,22.827Z" fill="#FFFFFF"/>
<path d="M8.985,76.464L8.729,78.645C8.614,79.786 8.533,81 8.508,82.33C8.504,82.56 8.527,82.792 8.579,83.016C8.796,82.8 9.025,82.448 9.257,82.06C10.019,80.789 10.492,79.369 10.697,77.9C11.198,74.318 12.058,72.197 12.838,69.822C13.602,67.501 14.261,65.496 14.261,63.366C14.261,61.067 13.672,58.95 12.99,56.498C12.185,53.607 11.204,50.08 10.87,45.031C10.796,43.916 10.035,42.96 8.956,42.669C8.804,42.628 8.707,42.612 8.708,42.637C8.909,48.686 10.122,53.378 11.022,56.612C11.695,59.034 12.558,60.603 12.558,62.844C12.558,64.905 11.907,66.27 11.124,68.651C10.346,71.018 9.514,72.679 8.985,76.464Z" fill="#FFFFFF"/>
<path d="M22.825,21.975C22.763,21.541 22.61,21.034 22.095,21.007C21.736,20.988 21.414,21.244 21.294,21.582C20.839,22.862 20.505,24.168 20.15,25.483C19.776,26.867 18.935,28.099 17.781,28.95L16.685,30.035C15.567,30.86 14.185,31.296 12.797,31.279L11.173,31.253C8.813,31.198 5.377,32.724 3.831,34.439C2,36.47 1.136,39.51 1.52,42.571L2.599,57.951C2.729,59.799 2.679,61.667 2.45,63.505L0.926,75.748C0.871,76.191 0.959,76.637 1.17,77.022C1.314,76.878 1.464,76.684 1.618,76.465C2.547,75.138 3.11,73.589 3.31,71.981L4.153,65.207C4.382,63.365 4.432,61.505 4.302,59.654L3.223,44.274C2.839,41.212 3.703,38.172 5.534,36.142C7.08,34.427 10.516,32.901 12.876,32.956L14.5,32.982C15.888,32.999 16.615,32.77 17.733,31.945C17.733,31.945 19.484,30.653 19.484,30.653C22.016,28.784 23.262,25.021 22.825,21.975Z" fill="#FFFFFF"/>
<path d="M25.01,85.042C24.657,85.042 24.371,84.757 24.371,84.404L24.371,80.153C24.371,79.8 24.657,79.514 25.01,79.514C25.362,79.514 25.648,79.8 25.648,80.153L25.648,84.404C25.648,84.757 25.362,85.042 25.01,85.042ZM25.01,76.537C24.657,76.537 24.371,76.251 24.371,75.898L24.371,71.643C24.371,71.291 24.657,71.005 25.01,71.005C25.362,71.005 25.648,71.291 25.648,71.643L25.648,75.898C25.648,76.251 25.362,76.537 25.01,76.537ZM24.942,68.027C24.603,68.027 24.32,67.76 24.304,67.417C24.243,66.083 24.141,64.706 23.991,63.208C23.956,62.857 24.212,62.544 24.563,62.509C24.911,62.475 25.227,62.729 25.262,63.081C25.414,64.602 25.518,66.001 25.58,67.359C25.596,67.711 25.324,68.01 24.971,68.026C24.962,68.027 24.952,68.027 24.942,68.027ZM24.125,59.556C23.809,59.556 23.535,59.323 23.492,59.002C23.347,57.909 23.194,56.825 23.041,55.745L22.907,54.792C22.857,54.443 23.101,54.12 23.45,54.07C23.798,54.021 24.122,54.264 24.171,54.614L24.306,55.566C24.459,56.65 24.612,57.737 24.758,58.833C24.805,59.183 24.559,59.504 24.21,59.55C24.181,59.554 24.153,59.556 24.125,59.556ZM22.978,51.123C22.659,51.123 22.384,50.885 22.345,50.56C22.157,48.996 22.019,47.6 21.925,46.294C21.9,45.942 22.164,45.637 22.516,45.611C22.867,45.589 23.174,45.851 23.199,46.202C23.292,47.488 23.427,48.864 23.613,50.408C23.655,50.758 23.405,51.076 23.055,51.118C23.029,51.121 23.003,51.123 22.978,51.123ZM22.402,42.634C22.402,42.634 22.402,42.634 22.402,42.634C22.049,42.634 21.763,42.348 21.763,41.995C21.764,40.619 21.821,39.26 21.931,37.956C21.939,37.866 21.948,37.773 21.958,37.677C21.995,37.326 22.312,37.073 22.66,37.109C23.01,37.146 23.265,37.46 23.228,37.81C23.219,37.897 23.211,37.981 23.204,38.063C23.095,39.35 23.041,40.636 23.041,41.996C23.04,42.348 22.755,42.634 22.402,42.634ZM23.358,34.188C23.311,34.188 23.264,34.183 23.216,34.172C22.872,34.094 22.657,33.752 22.735,33.408C23.013,32.185 23.361,30.785 23.769,29.247C23.86,28.906 24.21,28.703 24.55,28.794C24.891,28.884 25.094,29.234 25.004,29.575C24.599,31.098 24.255,32.483 23.981,33.691C23.913,33.987 23.65,34.188 23.358,34.188ZM25.527,25.941C25.468,25.941 25.409,25.932 25.35,25.915C25.011,25.818 24.815,25.464 24.913,25.125C25.594,22.762 26.131,21.034 26.136,21.017C26.241,20.681 26.6,20.492 26.936,20.597C27.273,20.702 27.461,21.06 27.356,21.397C27.351,21.414 26.817,23.13 26.14,25.478C26.06,25.758 25.804,25.941 25.527,25.941Z" fill="#540000"/>
<path d="M33.169,42.399C33.136,42.399 33.104,42.397 33.071,42.392L28.863,41.746C28.515,41.692 28.276,41.366 28.329,41.018C28.383,40.669 28.708,40.429 29.057,40.483L33.265,41.129C33.613,41.183 33.853,41.509 33.799,41.857C33.751,42.173 33.478,42.399 33.169,42.399ZM24.753,41.107C24.721,41.107 24.688,41.105 24.655,41.099L20.448,40.453C20.099,40.4 19.86,40.074 19.913,39.725C19.967,39.377 20.292,39.136 20.641,39.191L24.849,39.837C25.198,39.891 25.437,40.217 25.383,40.565C25.335,40.881 25.063,41.107 24.753,41.107ZM16.338,39.815C16.305,39.815 16.273,39.812 16.24,39.807L12.032,39.161C11.683,39.107 11.444,38.781 11.498,38.433C11.551,38.084 11.878,37.843 12.226,37.899L16.434,38.545C16.782,38.598 17.021,38.924 16.968,39.273C16.919,39.589 16.648,39.815 16.338,39.815Z" fill="#540000"/>
<path d="M8.474,79.169L2.961,79.169C2.112,79.169 1.302,78.804 0.74,78.167C0.178,77.531 -0.084,76.682 0.021,75.84L1.544,63.597C1.766,61.813 1.815,60 1.689,58.207L0.612,42.839C0.181,39.419 1.318,35.713 3.583,33.201C5.352,31.238 7.663,30.187 10.112,30.238L12.605,30.271C13.826,30.282 15.048,29.968 16.112,29.348L16.907,28.885C18.209,28.126 19.169,26.914 19.608,25.472L21.099,20.587C21.202,20.25 21.559,20.06 21.896,20.163C22.233,20.266 22.423,20.623 22.32,20.96L20.83,25.845C20.296,27.595 19.131,29.067 17.55,29.989L16.755,30.452C15.492,31.188 14.047,31.565 12.589,31.548L10.089,31.515C7.447,31.449 5.605,32.865 4.531,34.056C2.508,36.3 1.493,39.618 1.882,42.715L2.963,58.118C3.095,59.993 3.044,61.889 2.811,63.754L1.288,75.997C1.228,76.477 1.378,76.959 1.697,77.322C2.017,77.684 2.478,77.892 2.961,77.892L8.474,77.892C8.827,77.892 9.112,78.177 9.112,78.53C9.112,78.883 8.827,79.169 8.474,79.169Z" fill="#540000"/>
<path d="M45.035,80.447L41.619,80.447C41.266,80.447 40.98,80.161 40.98,79.809C40.98,79.456 41.266,79.17 41.619,79.17L45.035,79.17C45.554,79.17 46.036,78.936 46.358,78.529C46.68,78.122 46.795,77.599 46.675,77.094L44.237,66.849C44.231,66.826 44.227,66.803 44.224,66.78C43.988,64.885 43.936,62.959 44.07,61.055L45.312,48.177C45.923,43.317 44.038,37.753 38.458,36.237C37.834,36.068 37.232,35.833 36.725,35.625L34.739,34.812C33.165,34.167 31.873,32.978 31.1,31.463L30.341,29.975C29.765,28.844 29.597,27.539 29.868,26.3L30.609,22.911C30.684,22.566 31.024,22.348 31.369,22.423C31.714,22.499 31.932,22.839 31.857,23.183L31.116,26.573C30.908,27.525 31.037,28.527 31.479,29.395L32.238,30.883C32.872,32.126 33.932,33.101 35.223,33.63L37.209,34.443C37.68,34.636 38.236,34.853 38.793,35.005C45.113,36.721 47.259,42.928 46.581,48.318L45.343,61.161C45.217,62.955 45.265,64.786 45.487,66.588L47.918,76.798C48.129,77.686 47.926,78.605 47.36,79.321C46.795,80.037 45.947,80.447 45.035,80.447Z" fill="#540000"/>
<path d="M40.069,85.165L10.965,85.165C10.158,85.165 9.375,84.829 8.818,84.245C8.255,83.655 7.966,82.883 8.004,82.071C8.288,76.026 9.587,72.073 10.632,68.897C11.402,66.552 12.011,64.7 12.011,62.707C12.011,60.524 11.437,58.459 10.771,56.067C9.865,52.811 8.738,48.759 8.535,42.659C8.523,42.307 8.799,42.012 9.151,42C9.489,41.989 9.799,42.264 9.811,42.617C10.009,48.564 11.114,52.534 12.002,55.725C12.692,58.207 13.289,60.35 13.289,62.707C13.289,64.905 12.62,66.939 11.845,69.296C10.825,72.399 9.555,76.26 9.28,82.131C9.258,82.591 9.422,83.028 9.742,83.363C10.064,83.701 10.499,83.887 10.965,83.887L40.069,83.887C40.538,83.887 40.974,83.699 41.296,83.357C41.62,83.013 41.782,82.563 41.753,82.092C41.396,76.27 39.781,72.43 38.483,69.344C37.487,66.976 36.627,64.931 36.627,62.707C36.627,60.348 37.064,58.539 37.57,56.445C38.22,53.756 39.029,50.409 39.227,44.478C39.239,44.126 39.533,43.849 39.886,43.861C40.239,43.873 40.515,44.168 40.503,44.521C40.301,50.582 39.475,53.999 38.812,56.745C38.305,58.843 37.904,60.5 37.904,62.707C37.904,64.674 38.679,66.516 39.66,68.849C40.996,72.024 42.657,75.975 43.028,82.014C43.078,82.828 42.786,83.637 42.227,84.232C41.66,84.833 40.894,85.165 40.069,85.165Z" fill="#540000"/>
<path d="M30.567,26.745C30.305,26.745 30.059,26.583 29.965,26.322C29.847,25.99 30.019,25.624 30.351,25.505C33.288,24.452 35.519,22.04 36.174,19.212L37.973,11.367C38.524,9.059 38.14,6.681 36.893,4.668C35.646,2.655 33.688,1.252 31.381,0.719C26.673,-0.37 21.934,2.567 20.812,7.266L18.983,15.236C18.318,18.112 19.192,21.363 21.208,23.519C21.449,23.777 21.436,24.181 21.178,24.422C20.921,24.663 20.517,24.649 20.275,24.392C17.976,21.933 16.981,18.226 17.738,14.949L19.569,6.975C20.854,1.591 26.281,-1.772 31.669,-0.526C34.31,0.085 36.551,1.691 37.978,3.996C39.406,6.3 39.846,9.022 39.216,11.658L37.418,19.499C36.667,22.747 34.124,25.509 30.782,26.708C30.711,26.733 30.638,26.745 30.567,26.745Z" fill="#540000"/>
<path d="M30.563,26.745C30.294,26.745 30.044,26.574 29.956,26.304C29.847,25.969 30.03,25.608 30.366,25.499C33.268,24.554 35.492,22.144 36.17,19.212C36.25,18.868 36.593,18.654 36.936,18.733C37.28,18.813 37.494,19.156 37.415,19.499C36.636,22.866 34.087,25.63 30.761,26.713C30.696,26.735 30.629,26.745 30.563,26.745Z" fill="#540000"/>
</svg>
