<svg width="36" height="42" viewBox="0 0 36 42" fill="none" xmlns="http://www.w3.org/2000/svg" xmlns:xlink="http://www.w3.org/1999/xlink">
<path d="M34.108,17.618L5.818,0.562C5.234,0.202 4.566,0.009 3.884,0C3.202,-0.008 2.53,0.169 1.937,0.514C1.344,0.858 0.852,1.358 0.512,1.961C0.171,2.564 -0.005,3.249 0,3.945L0,38.052C-0.003,38.747 0.175,39.431 0.515,40.033C0.856,40.635 1.347,41.135 1.938,41.48C2.53,41.826 3.2,42.005 3.882,42C4.564,41.995 5.232,41.805 5.818,41.451L34.105,24.404C34.682,24.056 35.161,23.561 35.493,22.968C35.825,22.374 36,21.703 36,21.019C36,20.336 35.825,19.664 35.493,19.07C35.161,18.477 34.682,17.982 34.105,17.635L34.108,17.618Z" fill="#FCFCFF"/>
</svg>
