<svg width="64" height="72" viewBox="0 0 64 72" fill="none" xmlns="http://www.w3.org/2000/svg" xmlns:xlink="http://www.w3.org/1999/xlink">
<path d="M38.789,43.377L30.692,41.353L30.194,38.857L38.857,38.857C39.16,38.857 39.451,38.737 39.665,38.522C39.879,38.308 40,38.017 40,37.714L40,27.778C40.658,26.903 41.013,25.837 41.013,24.742C41.013,23.647 40.658,22.582 40,21.706L40,12.12C40.001,10.715 39.667,9.33 39.026,8.081C38.384,6.831 37.453,5.752 36.311,4.935C35.508,3.438 34.313,2.189 32.854,1.319C31.396,0.45 29.728,-0.006 28.03,0L22.857,0C18.918,0.005 15.142,1.571 12.356,4.357C9.571,7.142 8.004,10.918 8,14.857L8,21.393C7.18,22.316 6.728,23.508 6.728,24.742C6.728,25.977 7.18,27.168 8,28.091L8,37.714C8,38.017 8.12,38.308 8.335,38.522C8.549,38.737 8.84,38.857 9.143,38.857L17.806,38.857L17.307,41.353L9.21,43.377C6.58,44.034 4.244,45.552 2.575,47.689C0.906,49.826 0,52.46 0,55.171L0,69.714C0,70.017 0.12,70.308 0.335,70.522C0.549,70.736 0.84,70.857 1.143,70.857L46.857,70.857C47.16,70.857 47.451,70.736 47.665,70.522C47.879,70.308 48,70.017 48,69.714L48,55.171C48,52.46 47.093,49.826 45.424,47.689C43.756,45.552 41.42,44.034 38.789,43.377ZM9.014,24.742C9.015,24.072 9.252,23.424 9.683,22.912C10.113,22.399 10.71,22.053 11.369,21.936C11.475,23.848 11.769,25.745 12.247,27.599L11.871,27.599C11.113,27.599 10.386,27.298 9.851,26.762C9.315,26.226 9.014,25.499 9.014,24.742ZM13.585,20.285L13.585,19.88C14.23,18.684 15.139,17.651 16.243,16.86C17.347,16.069 18.617,15.54 19.956,15.314L22.881,14.827C24.384,14.571 25.806,13.961 27.028,13.049C28.251,12.137 29.24,10.949 29.914,9.581L29.974,9.67C32.006,12.714 33.427,16.125 34.156,19.712L34.156,20.283C34.146,26.251 32.158,32.047 28.502,36.763C27.956,37.47 27.254,38.042 26.452,38.435C25.649,38.828 24.767,39.03 23.874,39.027C22.98,39.03 22.097,38.828 21.294,38.435C20.491,38.043 19.789,37.471 19.242,36.763C15.586,32.047 13.596,26.251 13.585,20.283L13.585,20.285ZM36.372,21.937C37.067,22.07 37.688,22.457 38.115,23.022C38.541,23.587 38.742,24.29 38.68,24.995C38.617,25.7 38.296,26.357 37.777,26.838C37.257,27.319 36.578,27.591 35.871,27.6L35.495,27.6C35.972,25.745 36.266,23.849 36.372,21.937ZM27.818,48.241C26.63,48.823 25.323,49.126 24,49.126C22.676,49.126 21.37,48.823 20.182,48.241L19.442,42.328L19.858,40.25C21.081,40.946 22.463,41.312 23.87,41.313C25.368,41.313 26.837,40.898 28.114,40.114L28.556,42.322L27.818,48.241ZM24,51.428C25.189,51.424 26.369,51.224 27.494,50.837L25.276,68.571L22.723,68.571L20.506,50.837C21.631,51.224 22.811,51.424 24,51.428ZM31.443,36.571C32.844,34.495 33.972,32.248 34.8,29.884L35.871,29.884C36.502,29.881 37.127,29.761 37.714,29.529L37.714,36.571L31.443,36.571ZM22.857,2.286L28.03,2.286C29.353,2.282 30.652,2.649 31.778,3.345C32.904,4.041 33.812,5.039 34.4,6.225C34.489,6.403 34.623,6.554 34.788,6.665C35.688,7.262 36.427,8.073 36.937,9.025C37.448,9.976 37.715,11.04 37.714,12.12L37.714,19.955C37.305,19.802 36.877,19.702 36.442,19.657L36.442,19.599C36.442,19.522 36.434,19.445 36.419,19.37C35.639,15.45 34.095,11.722 31.875,8.399L30.536,6.4C30.411,6.212 30.232,6.065 30.023,5.978C29.815,5.891 29.585,5.868 29.363,5.912C29.141,5.956 28.937,6.065 28.777,6.224C28.617,6.384 28.508,6.587 28.464,6.809C28.167,8.258 27.44,9.584 26.376,10.612C25.313,11.64 23.964,12.323 22.506,12.571L19.582,13.059C17.843,13.352 16.198,14.05 14.78,15.097C13.362,16.144 12.211,17.51 11.419,19.086C11.34,19.244 11.299,19.419 11.299,19.596L11.299,19.657C10.955,19.694 10.615,19.767 10.286,19.875L10.286,14.857C10.29,11.524 11.615,8.329 13.972,5.972C16.329,3.615 19.524,2.29 22.857,2.286ZM10.286,29.609C10.796,29.785 11.331,29.878 11.871,29.884L12.942,29.884C13.769,32.248 14.898,34.495 16.298,36.571L10.286,36.571L10.286,29.609ZM2.286,55.171C2.286,52.97 3.022,50.831 4.377,49.096C5.731,47.361 7.628,46.128 9.763,45.594L14.106,44.508C13.089,47.749 12.572,51.126 12.571,54.523L12.571,55.019C11.494,55.297 10.555,55.959 9.931,56.88C9.306,57.801 9.039,58.918 9.179,60.021C9.319,61.125 9.857,62.14 10.692,62.875C11.527,63.611 12.602,64.017 13.714,64.017C14.827,64.017 15.901,63.611 16.736,62.875C17.571,62.14 18.109,61.125 18.249,60.021C18.389,58.918 18.122,57.801 17.498,56.88C16.873,55.959 15.934,55.297 14.857,55.019L14.857,54.523C14.857,50.883 15.494,47.271 16.739,43.85L17.311,43.706L20.419,68.571L9.872,68.571C8.645,65.891 8.006,62.979 8,60.032L8,59.428L5.714,59.428L5.714,60.032C5.721,62.959 6.288,65.857 7.385,68.571L2.286,68.571L2.286,55.171ZM13.714,57.143C14.166,57.143 14.608,57.277 14.984,57.528C15.36,57.779 15.653,58.136 15.826,58.554C15.999,58.971 16.044,59.431 15.956,59.874C15.868,60.318 15.65,60.725 15.33,61.044C15.011,61.364 14.604,61.582 14.16,61.67C13.717,61.758 13.257,61.713 12.84,61.54C12.422,61.367 12.065,61.074 11.814,60.698C11.563,60.322 11.428,59.88 11.428,59.428C11.428,58.822 11.669,58.241 12.098,57.812C12.527,57.383 13.108,57.143 13.714,57.143ZM45.714,68.571L40.615,68.571C41.712,65.857 42.279,62.959 42.285,60.032L42.285,59.428L40,59.428L40,60.032C39.993,62.979 39.355,65.891 38.128,68.571L27.58,68.571L30.688,43.706L31.193,43.833C32.369,47.058 33.02,50.452 33.121,53.883C32.147,54.138 31.285,54.709 30.669,55.505C30.053,56.301 29.717,57.279 29.714,58.285L29.714,64C29.714,64.303 29.835,64.593 30.049,64.808C30.263,65.022 30.554,65.143 30.857,65.143L33.143,65.143L33.143,62.857L32,62.857L32,58.285C32,57.679 32.241,57.098 32.669,56.669C33.098,56.241 33.679,56 34.285,56C34.892,56 35.473,56.241 35.902,56.669C36.33,57.098 36.571,57.679 36.571,58.285L36.571,62.857L35.428,62.857L35.428,65.143L37.714,65.143C38.017,65.143 38.308,65.022 38.522,64.808C38.736,64.593 38.857,64.303 38.857,64L38.857,58.285C38.853,57.271 38.512,56.286 37.887,55.486C37.262,54.687 36.389,54.118 35.405,53.869C35.317,50.685 34.786,47.529 33.828,44.491L38.235,45.594C40.371,46.128 42.268,47.36 43.623,49.096C44.978,50.831 45.714,52.969 45.714,55.171L45.714,68.571Z" fill="#4E88FF"/>
<path d="M64,10.665C63.999,8.676 63.302,6.75 62.029,5.222L60.948,3.925C59.925,2.696 58.644,1.708 57.197,1.03C55.749,0.352 54.17,0 52.572,0C50.973,0 49.394,0.352 47.947,1.03C46.499,1.708 45.219,2.696 44.196,3.925L43.116,5.221C41.756,6.851 41.056,8.93 41.152,11.05C41.248,13.171 42.133,15.178 43.635,16.679L46.384,19.428L42.621,23.192C42.407,23.406 42.286,23.697 42.286,24C42.286,24.303 42.407,24.593 42.621,24.808L47.192,29.379C47.407,29.593 47.697,29.714 48,29.714C48.303,29.714 48.594,29.593 48.808,29.379L52.572,25.616L56.335,29.379C56.549,29.593 56.84,29.714 57.143,29.714C57.446,29.714 57.737,29.593 57.951,29.379L62.523,24.808C62.737,24.593 62.857,24.303 62.857,24C62.857,23.697 62.737,23.406 62.523,23.192L58.759,19.428L61.509,16.679C62.301,15.891 62.929,14.954 63.357,13.922C63.785,12.889 64.003,11.782 64,10.665ZM52.572,2.286C54.653,2.287 56.662,3.044 58.227,4.416C58.096,5.761 57.69,7.066 57.035,8.248C55.706,7.39 54.159,6.934 52.577,6.934C50.996,6.934 49.449,7.39 48.12,8.248C47.459,7.066 47.047,5.76 46.912,4.411C48.479,3.04 50.49,2.285 52.572,2.286ZM49.755,10.424C49.648,10.318 49.552,10.205 49.452,10.094C50.386,9.508 51.467,9.197 52.571,9.197C53.674,9.197 54.755,9.508 55.689,10.094C55.589,10.208 55.494,10.322 55.389,10.424L52.572,13.241L49.755,10.424ZM48,26.955L45.045,24L48,21.044L50.956,24L48,26.955ZM60.099,24L57.143,26.955L45.251,15.063C44.153,13.966 43.506,12.498 43.435,10.947C43.365,9.397 43.877,7.876 44.871,6.685L44.979,6.554C45.529,8.63 46.619,10.523 48.139,12.04L60.099,24ZM57.143,17.812L54.188,14.857L57.005,12.04C58.523,10.52 59.611,8.623 60.157,6.545L60.271,6.686C61.265,7.878 61.776,9.398 61.706,10.948C61.635,12.498 60.988,13.966 59.891,15.063L57.143,17.812Z" fill="#4E88FF"/>
</svg>
