<svg width="46" height="46" viewBox="0 0 46 46" fill="none" xmlns="http://www.w3.org/2000/svg" xmlns:xlink="http://www.w3.org/1999/xlink">
<path d="M22.406,0C10.033,0 0,10.032 0,22.405C0,34.778 10.033,44.811 22.406,44.811C34.779,44.811 44.811,34.778 44.811,22.405C44.811,10.032 34.779,0 22.406,0ZM29.613,22.75L18.69,30.697C18.63,30.74 18.559,30.766 18.486,30.772C18.412,30.777 18.339,30.762 18.273,30.729C18.207,30.695 18.152,30.644 18.114,30.581C18.075,30.518 18.055,30.446 18.055,30.372L18.055,14.489C18.054,14.415 18.075,14.342 18.113,14.279C18.152,14.216 18.207,14.165 18.272,14.131C18.338,14.097 18.412,14.083 18.486,14.088C18.559,14.094 18.63,14.12 18.69,14.163L29.613,22.105C29.664,22.142 29.706,22.19 29.735,22.246C29.764,22.302 29.78,22.365 29.78,22.428C29.78,22.491 29.764,22.553 29.735,22.61C29.706,22.666 29.664,22.714 29.613,22.75L29.613,22.75Z" fill="#255FD5"/>
</svg>
