<svg width="38" height="38" viewBox="0 0 38 38" fill="none" xmlns="http://www.w3.org/2000/svg" xmlns:xlink="http://www.w3.org/1999/xlink">
<path d="M19,0C8.508,0 0,8.508 0,19C0,29.492 8.508,38 19,38C29.492,38 38,29.492 38,19C38,8.508 29.492,0 19,0ZM25.111,19.293L15.849,26.032C15.798,26.068 15.738,26.09 15.676,26.095C15.614,26.099 15.551,26.087 15.495,26.058C15.44,26.03 15.393,25.986 15.36,25.933C15.328,25.88 15.31,25.819 15.31,25.756L15.31,12.286C15.31,12.224 15.327,12.162 15.36,12.109C15.392,12.055 15.439,12.012 15.495,11.983C15.551,11.955 15.613,11.942 15.676,11.947C15.738,11.952 15.798,11.974 15.849,12.011L25.111,18.746C25.155,18.776 25.191,18.817 25.215,18.865C25.24,18.913 25.253,18.965 25.253,19.019C25.253,19.073 25.24,19.125 25.215,19.173C25.191,19.221 25.155,19.262 25.111,19.293L25.111,19.293Z" fill="#255FD5"/>
</svg>
