<svg width="22" height="20" viewBox="0 0 22 20" fill="none" xmlns="http://www.w3.org/2000/svg" xmlns:xlink="http://www.w3.org/1999/xlink">
<path d="M20,11.205C20.663,11.205 21.2,10.668 21.2,10.005C21.2,9.343 20.663,8.805 20,8.805L20,11.205ZM2,8.805C1.337,8.805 0.8,9.343 0.8,10.005C0.8,10.668 1.337,11.205 2,11.205L2,8.805ZM12.135,1.118C11.647,0.668 10.888,0.699 10.439,1.187C9.99,1.674 10.021,2.433 10.508,2.882L12.135,1.118ZM20,10L20.813,10.882C21.06,10.655 21.2,10.335 21.2,10C21.2,9.665 21.06,9.345 20.813,9.118L20,10ZM10.508,17.118C10.021,17.567 9.99,18.326 10.439,18.813C10.888,19.301 11.647,19.332 12.135,18.882L10.508,17.118ZM20,8.805L2,8.805L2,11.205L20,11.205L20,8.805ZM10.508,2.882L19.187,10.882L20.813,9.118L12.135,1.118L10.508,2.882ZM19.187,9.118L10.508,17.118L12.135,18.882L20.813,10.882L19.187,9.118Z" fill="#FFFFFF"/>
</svg>
