<svg width="22" height="28" viewBox="0 0 22 28" fill="none" xmlns="http://www.w3.org/2000/svg" xmlns:xlink="http://www.w3.org/1999/xlink">
<path d="M11,4.583C8.824,4.583 6.698,5.228 4.889,6.437C3.08,7.646 1.67,9.364 0.837,11.374C0.005,13.384 -0.213,15.596 0.211,17.729C0.636,19.863 1.683,21.823 3.222,23.362C4.76,24.9 6.72,25.948 8.854,26.372C10.988,26.796 13.2,26.579 15.21,25.746C17.219,24.913 18.937,23.504 20.146,21.695C21.355,19.886 22,17.759 22,15.583C21.997,12.667 20.837,9.871 18.774,7.809C16.712,5.747 13.916,4.587 11,4.583ZM11,23.833C9.368,23.833 7.773,23.349 6.417,22.443C5.06,21.536 4.002,20.248 3.378,18.74C2.754,17.233 2.59,15.574 2.909,13.974C3.227,12.373 4.013,10.903 5.166,9.75C6.32,8.596 7.79,7.81 9.39,7.492C10.991,7.174 12.65,7.337 14.157,7.961C15.665,8.586 16.953,9.643 17.86,11C18.766,12.357 19.25,13.952 19.25,15.583C19.248,17.771 18.378,19.868 16.831,21.414C15.284,22.961 13.187,23.831 11,23.833ZM15.181,10.944C15.309,11.072 15.411,11.223 15.48,11.391C15.55,11.558 15.586,11.737 15.586,11.918C15.586,12.099 15.55,12.278 15.48,12.445C15.411,12.612 15.309,12.764 15.181,12.892L11.973,16.1C11.715,16.358 11.364,16.504 10.999,16.504C10.634,16.504 10.283,16.358 10.025,16.1C9.767,15.842 9.621,15.491 9.621,15.126C9.621,14.761 9.767,14.411 10.025,14.152L13.233,10.944C13.361,10.816 13.513,10.714 13.68,10.645C13.847,10.575 14.026,10.539 14.207,10.539C14.388,10.539 14.567,10.575 14.734,10.645C14.902,10.714 15.053,10.816 15.181,10.944ZM6.875,1.375C6.875,1.01 7.02,0.661 7.278,0.403C7.536,0.145 7.885,0 8.25,0L13.75,0C14.115,0 14.464,0.145 14.722,0.403C14.98,0.661 15.125,1.01 15.125,1.375C15.125,1.74 14.98,2.089 14.722,2.347C14.464,2.605 14.115,2.75 13.75,2.75L8.25,2.75C7.885,2.75 7.536,2.605 7.278,2.347C7.02,2.089 6.875,1.74 6.875,1.375Z" fill="#222E58"/>
</svg>
