<svg width="64" height="64" viewBox="0 0 64 64" fill="none" xmlns="http://www.w3.org/2000/svg" xmlns:xlink="http://www.w3.org/1999/xlink">
<path d="M64,46.72C64,43.544 61.477,40.96 58.375,40.96L55.101,40.96C55.309,40.359 55.424,39.713 55.424,39.04L55.424,32.811L55.937,32.508C58.623,30.92 59.547,27.39 57.996,24.639C57.022,22.911 55.299,21.896 53.487,21.774C52.447,20.038 51.033,18.561 49.344,17.459C47.951,16.55 46.412,15.927 44.805,15.608C46.098,13.962 46.875,11.873 46.875,9.6C46.875,4.307 42.669,0 37.5,0C32.331,0 28.125,4.307 28.125,9.6C28.125,11.842 28.882,13.906 30.145,15.542C23.929,16.597 19.174,22.14 19.174,28.8L19.174,33.92C19.174,35.073 19.447,36.161 19.929,37.122C17.909,37.141 16.077,37.982 14.738,39.335C13.263,37.221 10.849,35.84 8.125,35.84C3.645,35.84 0,39.572 0,44.16C0,46.541 0.984,48.691 2.555,50.209C0.998,51.501 0,53.473 0,55.68L0,62.08C0,63.14 0.84,64 1.875,64L62.125,64C63.16,64 64,63.14 64,62.08L64,55.68C64,53.855 63.318,52.189 62.201,50.937C63.306,49.885 64,48.384 64,46.72ZM51.674,39.04C51.674,40.099 50.833,40.96 49.799,40.96C48.765,40.96 47.924,40.099 47.924,39.04C47.924,39.038 47.924,39.037 47.924,39.035L47.924,37.245L51.674,35.028L51.674,39.04ZM37.5,3.84C40.602,3.84 43.125,6.424 43.125,9.6C43.125,12.776 40.602,15.36 37.5,15.36C34.398,15.36 31.875,12.776 31.875,9.6C31.875,6.424 34.398,3.84 37.5,3.84ZM22.924,28.8C22.924,23.507 27.129,19.2 32.299,19.2L42.299,19.2C45.248,19.2 47.943,20.578 49.696,22.895L39.487,28.931C38.853,29.306 38.309,29.802 37.873,30.38C36.988,29.787 35.932,29.44 34.799,29.44L30.424,29.44L30.424,27.52C30.424,26.46 29.584,25.6 28.549,25.6C27.513,25.6 26.674,26.46 26.674,27.52L26.674,31.36C26.674,32.42 27.513,33.28 28.549,33.28L34.799,33.28C35.832,33.28 36.674,34.141 36.674,35.2C36.674,36.259 35.832,37.12 34.799,37.12L26.049,37.12C24.326,37.12 22.924,35.685 22.924,33.92L22.924,28.8ZM20,40.96L38.549,40.96C39.584,40.96 40.424,40.1 40.424,39.04C40.424,39.04 40.439,34.007 40.44,33.922C40.44,33.22 40.785,32.598 41.362,32.257L52.187,25.857C53.082,25.327 54.231,25.642 54.748,26.559C55.265,27.476 54.957,28.653 54.062,29.182L45.111,34.474C44.531,34.817 44.174,35.451 44.174,36.137L44.174,42.88C44.174,43.94 45.013,44.8 46.049,44.8L58.375,44.8C59.409,44.8 60.25,45.661 60.25,46.72C60.25,47.779 59.409,48.64 58.375,48.64L20,48.64C17.932,48.64 16.25,46.917 16.25,44.8C16.25,42.683 17.932,40.96 20,40.96ZM8.125,39.68C10.537,39.68 12.5,41.69 12.5,44.16C12.5,46.63 10.537,48.64 8.125,48.64C5.713,48.64 3.75,46.63 3.75,44.16C3.75,41.69 5.713,39.68 8.125,39.68ZM60.25,60.16L3.75,60.16L3.75,55.68C3.75,53.916 5.152,52.48 6.875,52.48L57.125,52.48C58.848,52.48 60.25,53.916 60.25,55.68L60.25,60.16Z" fill="#D186FF"/>
</svg>
