<svg width="66" height="66" viewBox="0 0 66 66" fill="none" xmlns="http://www.w3.org/2000/svg" xmlns:xlink="http://www.w3.org/1999/xlink">
<path d="M66,20.874C66,19.242 65.364,17.708 64.21,16.554L61.148,13.492L62.708,11.932C62.717,11.923 62.726,11.915 62.734,11.906C65.116,9.524 65.116,5.648 62.734,3.266C61.58,2.112 60.046,1.476 58.414,1.476C56.782,1.476 55.248,2.112 54.093,3.266C54.084,3.275 54.074,3.285 54.064,3.295L52.508,4.852L49.445,1.789C48.292,0.636 46.757,0 45.125,0C43.493,0 41.959,0.636 40.805,1.79C40.199,2.395 39.749,3.097 39.451,3.847C38.502,3.265 37.408,2.953 36.266,2.953C34.634,2.953 33.1,3.588 31.945,4.743C29.564,7.125 29.564,11 31.945,13.383L37.961,19.398L19.395,37.962L13.38,31.947C12.226,30.794 10.692,30.158 9.06,30.158C7.428,30.158 5.894,30.794 4.739,31.948C2.707,33.98 2.41,37.098 3.844,39.449C3.083,39.752 2.383,40.209 1.786,40.807C-0.595,43.188 -0.596,47.064 1.786,49.446L4.848,52.508L3.263,54.094C2.109,55.248 1.473,56.782 1.473,58.414C1.473,60.046 2.109,61.58 3.263,62.734C4.417,63.888 5.951,64.524 7.583,64.524C9.2,64.524 10.722,63.899 11.872,62.765C11.883,62.755 11.893,62.744 11.904,62.734L13.489,61.149L16.551,64.211C17.705,65.364 19.239,66 20.872,66L20.872,66C22.504,66 24.038,65.364 25.193,64.21C25.798,63.605 26.249,62.903 26.546,62.153C27.496,62.735 28.589,63.047 29.73,63.047L29.731,63.047C31.362,63.047 32.897,62.412 34.051,61.258C35.205,60.104 35.841,58.569 35.841,56.937C35.841,55.305 35.205,53.771 34.051,52.617L28.036,46.602L46.602,28.038L52.617,34.052C53.771,35.206 55.305,35.842 56.937,35.842L56.938,35.842C58.569,35.842 60.104,35.206 61.257,34.052C62.412,32.899 63.048,31.364 63.048,29.732C63.048,28.591 62.736,27.499 62.155,26.55C62.915,26.247 63.614,25.79 64.211,25.194C65.365,24.04 66,22.506 66,20.874ZM9.195,59.973C9.186,59.982 9.177,59.991 9.168,60C8.745,60.423 8.182,60.656 7.583,60.656C6.984,60.656 6.421,60.423 5.997,59.999C5.574,59.576 5.34,59.013 5.34,58.414C5.34,57.815 5.574,57.252 5.997,56.828L7.583,55.243L10.754,58.414L9.195,59.973ZM55.242,7.586L56.827,6.002C56.834,5.995 56.841,5.987 56.849,5.98C57.27,5.569 57.825,5.344 58.414,5.344C59.013,5.344 59.576,5.577 59.999,6C60.868,6.869 60.874,8.278 60.018,9.153C60.011,9.16 60.004,9.166 59.998,9.173L58.414,10.757L56.828,9.172L55.242,7.586ZM43.54,4.524C43.963,4.1 44.526,3.867 45.125,3.867C45.724,3.867 46.287,4.1 46.711,4.524L54.093,11.906L57.046,14.859C57.047,14.859 57.047,14.86 57.047,14.86L61.476,19.289C61.899,19.712 62.133,20.275 62.133,20.874C62.133,21.473 61.899,22.036 61.476,22.459C61.052,22.883 60.489,23.116 59.89,23.116C59.292,23.116 58.73,22.884 58.307,22.462L43.536,7.692C42.666,6.818 42.666,5.397 43.54,4.524ZM22.458,61.476C22.034,61.899 21.471,62.133 20.872,62.133C20.272,62.133 19.709,61.899 19.286,61.476L14.857,57.048C14.857,57.047 14.857,57.047 14.856,57.047L13.917,56.107L4.521,46.712C3.647,45.838 3.647,44.415 4.521,43.541C4.945,43.117 5.508,42.884 6.107,42.884C6.705,42.884 7.267,43.117 7.691,43.539L22.466,58.314C23.331,59.189 23.329,60.605 22.458,61.476ZM31.973,56.937C31.973,57.536 31.74,58.1 31.317,58.523C30.893,58.947 30.33,59.18 29.73,59.18C29.73,59.18 29.73,59.18 29.73,59.18C29.131,59.18 28.568,58.947 28.144,58.523L25.209,55.588C25.203,55.582 25.198,55.576 25.192,55.57L10.427,40.806L10.427,40.806L7.474,37.853C6.6,36.979 6.6,35.557 7.474,34.682C7.897,34.259 8.461,34.025 9.06,34.025C9.659,34.025 10.222,34.258 10.645,34.682L18.027,42.063C18.027,42.063 18.027,42.064 18.028,42.064L23.565,47.601L31.317,55.352C31.74,55.776 31.973,56.338 31.973,56.937ZM25.301,43.868L23.715,42.282L22.13,40.697L40.695,22.132L43.867,25.303L25.301,43.868ZM58.523,31.318C58.099,31.741 57.536,31.975 56.938,31.975C56.338,31.975 55.775,31.741 55.351,31.318L47.974,23.941C47.972,23.939 47.971,23.937 47.969,23.936L42.063,18.03C42.062,18.029 42.061,18.028 42.06,18.027L34.68,10.648C33.806,9.774 33.806,8.351 34.68,7.477C35.104,7.053 35.667,6.82 36.266,6.82C36.865,6.82 37.429,7.053 37.852,7.477L40.797,10.421C40.799,10.424 40.802,10.427 40.805,10.43L55.57,25.194C55.572,25.195 55.573,25.197 55.574,25.198L58.523,28.146C58.947,28.57 59.18,29.133 59.18,29.732C59.18,30.331 58.947,30.894 58.523,31.318Z" fill="#FE916E"/>
</svg>
