<svg width="32" height="24" viewBox="0 0 32 24" fill="none" xmlns="http://www.w3.org/2000/svg" xmlns:xlink="http://www.w3.org/1999/xlink">
<path d="M14.89,22.476L10.878,18.432C10.816,18.372 10.768,18.3 10.735,18.221C10.703,18.141 10.687,18.056 10.69,17.97C10.691,17.885 10.709,17.8 10.743,17.722C10.778,17.644 10.828,17.574 10.89,17.516C12.131,16.467 13.703,15.892 15.327,15.892C16.951,15.892 18.523,16.467 19.764,17.516C19.827,17.574 19.879,17.644 19.914,17.722C19.95,17.8 19.969,17.884 19.97,17.97C19.972,18.056 19.956,18.141 19.924,18.22C19.891,18.3 19.843,18.372 19.782,18.432L15.778,22.476C15.72,22.535 15.65,22.581 15.574,22.613C15.498,22.645 15.416,22.662 15.333,22.662C15.25,22.662 15.168,22.645 15.092,22.613C15.015,22.581 14.946,22.535 14.888,22.476L14.89,22.476ZM21.95,15.392C20.138,13.753 17.781,12.845 15.338,12.845C12.894,12.845 10.538,13.753 8.726,15.392C8.608,15.504 8.452,15.566 8.289,15.564C8.126,15.563 7.971,15.497 7.856,15.382L5.536,13.04C5.475,12.98 5.426,12.908 5.393,12.829C5.36,12.75 5.343,12.666 5.343,12.58C5.343,12.494 5.36,12.409 5.393,12.331C5.426,12.252 5.475,12.18 5.536,12.12C8.197,9.648 11.695,8.274 15.327,8.274C18.959,8.274 22.457,9.648 25.118,12.12C25.179,12.18 25.228,12.252 25.261,12.331C25.294,12.409 25.311,12.494 25.311,12.58C25.311,12.666 25.294,12.75 25.261,12.829C25.228,12.908 25.179,12.98 25.118,13.04L22.818,15.382C22.703,15.497 22.548,15.563 22.385,15.564C22.222,15.566 22.066,15.504 21.948,15.392L21.95,15.392ZM27.288,9.992C24.062,6.928 19.782,5.22 15.333,5.22C10.884,5.22 6.604,6.928 3.378,9.992C3.262,10.107 3.106,10.172 2.943,10.172C2.78,10.172 2.623,10.107 2.508,9.992L0.188,7.662C0.128,7.602 0.08,7.531 0.048,7.452C0.015,7.374 -0.001,7.29 -0.001,7.205C-0.001,7.12 0.015,7.036 0.048,6.958C0.08,6.879 0.128,6.808 0.188,6.748C4.263,2.846 9.687,0.668 15.329,0.668C20.971,0.668 26.395,2.846 30.47,6.748C30.53,6.808 30.578,6.879 30.61,6.958C30.643,7.036 30.659,7.12 30.659,7.205C30.659,7.29 30.643,7.374 30.61,7.452C30.578,7.531 30.53,7.602 30.47,7.662L28.148,10.002C28.033,10.117 27.876,10.182 27.713,10.182C27.55,10.182 27.393,10.117 27.278,10.002L27.288,9.992Z" fill="#2A2A2A"/>
</svg>
